#!OML:ASF F:\VICON\USERDATA\INSTALL\rory3\rory3.ASF
:FULLY-SPECIFIED
:DEGREES
1
root -9.69618 14.4436 -8.71209 16.712 37.9505 8.93735
lowerback 30.4742 1.16604 -2.12556
upperback 7.48067 1.33615 1.91912
thorax -8.3702 0.786016 2.89007
lowerneck -17.0542 -11.1936 -8.35103
upperneck 0.0951828 -13.8301 9.9896
head 3.98416 -6.42222 3.12793
rclavicle 1.1609e-013 -1.59028e-015
rhumerus -9.4375 -30.0155 -50.4078
rradius 65.0482
rwrist 26.5157
rhand -31.1209 -11.9677
rfingers 7.12502
rthumb -4.39986 -41.902
lclavicle 1.1609e-013 -1.59028e-015
lhumerus -43.3252 33.8224 52.6172
lradius 58.8685
lwrist 4.90463
lhand -31.144 36.97
lfingers 7.12502
lthumb -4.42224 66.9038
rfemur -63.6172 -28.7555 19.0481
rtibia 93.5061
rfoot -27.4194 -9.71651
rtoes -6.07817
lfemur -57.045 0.14545 -12.4967
ltibia 74.2623
lfoot -27.8991 -12.2944
ltoes -24.8123
2
root -9.73187 14.467 -8.6845 16.7471 37.9178 8.93633
lowerback 30.3724 1.1144 -2.1877
upperback 7.49808 1.26179 1.99296
thorax -8.29921 0.751148 3.03723
lowerneck -17.1824 -11.0367 -8.48739
upperneck 0.260787 -13.5876 9.90907
head 4.03622 -6.29993 3.14254
rclavicle 5.00937e-014 1.59028e-015
rhumerus -9.18297 -29.7548 -50.3876
rradius 64.9217
rwrist 26.5391
rhand -31.0093 -11.8185
rfingers 7.12502
rthumb -4.29208 -41.755
lclavicle 5.00937e-014 1.59028e-015
lhumerus -43.3681 33.7027 52.9125
lradius 59.0724
lwrist 5.70262
lhand -30.743 36.263
lfingers 7.12502
lthumb -4.03492 66.2045
rfemur -63.5441 -28.6462 19.2662
rtibia 93.3259
rfoot -27.4461 -9.73572
rtoes -6.02425
lfemur -56.8064 -0.0407008 -12.2307
ltibia 73.8936
lfoot -27.8048 -12.2175
ltoes -24.5305
3
root -9.768 14.4816 -8.65069 16.7324 37.9199 8.82994
lowerback 30.2405 1.07912 -2.08443
upperback 7.52402 1.25308 2.02634
thorax -8.20549 0.744177 3.01822
lowerneck -17.5732 -10.9448 -8.39544
upperneck 0.642399 -13.4581 9.64516
head 4.17389 -6.2307 3.03946
rclavicle 1.18476e-013 -2.38542e-014
rhumerus -9.28021 -29.7405 -50.3668
rradius 65.1087
rwrist 26.6594
rhand -30.8424 -11.7276
rfingers 7.12502
rthumb -4.13095 -41.6673
lclavicle 1.18476e-013 -2.38542e-014
lhumerus -43.5019 33.921 52.6333
lradius 58.813
lwrist 4.29536
lhand -30.5296 37.1575
lfingers 7.12502
lthumb -3.82885 67.1029
rfemur -63.494 -28.557 19.624
rtibia 93.2077
rfoot -27.4315 -9.92621
rtoes -6.36736
lfemur -56.6443 -0.120805 -11.9094
ltibia 73.5417
lfoot -27.7868 -11.8321
ltoes -25.4994
4
root -9.80667 14.4989 -8.60825 16.7241 37.8595 9.01738
lowerback 30.2786 1.11331 -2.28965
upperback 7.54498 1.23441 2.01272
thorax -8.20076 0.738279 3.12892
lowerneck -17.5328 -10.8707 -8.39451
upperneck 0.552312 -13.3456 9.52459
head 4.12049 -6.18399 3.02064
rclavicle 2.70347e-014 2.38542e-014
rhumerus -9.52416 -29.6458 -50.2946
rradius 65.4083
rwrist 26.6294
rhand -30.6561 -12.0435
rfingers 7.12502
rthumb -3.95104 -41.9867
lclavicle 2.70347e-014 2.38542e-014
lhumerus -43.6153 34.2394 52.4678
lradius 58.5258
lwrist 3.60584
lhand -29.487 34.9994
lfingers 7.12502
lthumb -2.82199 64.9605
rfemur -63.2411 -28.5333 19.5661
rtibia 93.0877
rfoot -27.6181 -9.67771
rtoes -5.67037
lfemur -56.1858 -0.174413 -11.8693
ltibia 73.1411
lfoot -27.7921 -11.5016
ltoes -26.5639
5
root -9.84029 14.5175 -8.56935 16.7431 37.9022 9.16432
lowerback 30.1532 1.06965 -2.34053
upperback 7.61646 1.16979 2.0234
thorax -8.05556 0.706809 3.19386
lowerneck -17.5654 -10.8389 -8.27102
upperneck 0.49428 -13.3018 9.26879
head 4.07464 -6.17519 2.93147
rclavicle 4.29375e-014 -6.83819e-014
rhumerus -9.4625 -29.5315 -50.2427
rradius 65.3802
rwrist 26.6563
rhand -30.8795 -12.2451
rfingers 7.12502
rthumb -4.16679 -42.1841
lclavicle 4.29375e-014 -6.83819e-014
lhumerus -43.5788 34.6887 52.3867
lradius 58.1772
lwrist 3.30681
lhand -29.6042 35.058
lfingers 7.12502
lthumb -2.9352 65.0176
rfemur -62.9694 -28.5591 19.5659
rtibia 92.9024
rfoot -27.6813 -9.5826
rtoes -4.97414
lfemur -55.8321 -0.371876 -11.7852
ltibia 72.7539
lfoot -27.8612 -11.0362
ltoes -27.7405
6
root -9.87793 14.5391 -8.53251 16.6698 37.8049 9.01299
lowerback 30.0678 1.05774 -2.18529
upperback 7.62415 1.1965 1.989
thorax -8.00555 0.716011 3.05517
lowerneck -17.9168 -10.7793 -8.17049
upperneck 0.851508 -13.2319 9.17987
head 4.21898 -6.12882 2.87482
rclavicle -6.83819e-014 -1.59028e-014
rhumerus -9.3059 -29.5654 -50.2864
rradius 65.0195
rwrist 27.0788
rhand -31.2057 -12.0854
rfingers 7.12502
rthumb -4.4818 -42.018
lclavicle -6.83819e-014 -1.59028e-014
lhumerus -43.5387 34.7737 52.3021
lradius 58.0045
lwrist 3.23256
lhand -30.2864 36.0453
lfingers 7.12502
lthumb -3.59403 65.9948
rfemur -62.8209 -28.3065 19.8974
rtibia 92.6775
rfoot -27.729 -9.75929
rtoes -5.20561
lfemur -55.6083 -0.319008 -11.488
ltibia 72.4035
lfoot -27.8676 -10.5211
ltoes -28.7969
7
root -9.92068 14.5594 -8.49674 16.4564 37.5961 8.66467
lowerback 30.1259 1.11365 -2.10158
upperback 7.56438 1.29255 2.04312
thorax -8.10819 0.760415 3.03312
lowerneck -18.091 -10.6202 -8.10308
upperneck 1.1158 -13.0263 9.04751
head 4.29641 -6.02479 2.83597
rclavicle 7.55382e-014 -5.88403e-014
rhumerus -9.23429 -29.4632 -50.301
rradius 64.8386
rwrist 27.218
rhand -31.1291 -11.691
rfingers 7.12502
rthumb -4.40779 -41.6251
lclavicle 7.55382e-014 -5.88403e-014
lhumerus -43.6674 34.7108 52.258
lradius 57.9696
lwrist 3.30664
lhand -31.0058 37.0688
lfingers 7.12502
lthumb -4.28878 67.0054
rfemur -62.7226 -27.8023 20.3591
rtibia 92.3968
rfoot -27.6341 -9.81748
rtoes -5.02433
lfemur -55.3223 -0.0216944 -11.0227
ltibia 72.063
lfoot -27.4614 -10.7873
ltoes -27.9188
8
root -9.95714 14.5696 -8.46218 16.3816 37.4294 8.58604
lowerback 30.13 1.08183 -2.16888
upperback 7.51781 1.23182 2.06274
thorax -8.16022 0.732785 3.11657
lowerneck -17.9651 -10.4376 -8.02148
upperneck 1.06455 -12.7896 8.85425
head 4.22314 -5.92267 2.80009
rclavicle 7.95139e-015 1.11319e-014
rhumerus -9.19193 -29.1956 -50.4636
rradius 64.9331
rwrist 27.2185
rhand -31.1343 -11.5302
rfingers 7.12502
rthumb -4.41277 -41.4642
lclavicle 7.95139e-015 1.11319e-014
lhumerus -43.9898 34.7351 52.0964
lradius 58.0028
lwrist 3.62582
lhand -31.1721 37.5284
lfingers 7.12502
lthumb -4.44936 67.4617
rfemur -62.6233 -27.5635 20.5484
rtibia 92.2101
rfoot -27.6724 -9.61444
rtoes -4.68003
lfemur -55.0031 0.0670551 -10.7583
ltibia 71.8379
lfoot -26.8855 -11.2604
ltoes -25.556
9
root -9.99606 14.5819 -8.42732 16.2991 37.2262 8.47667
lowerback 30.1291 1.09214 -2.15624
upperback 7.45086 1.24206 2.03935
thorax -8.23616 0.737396 3.07936
lowerneck -17.8536 -10.3473 -8.1643
upperneck 1.09866 -12.6572 8.95202
head 4.22333 -5.85542 2.8695
rclavicle 5.80451e-014 -5.56597e-014
rhumerus -9.04294 -28.9233 -50.3826
rradius 64.6581
rwrist 27.1716
rhand -31.3629 -11.7938
rfingers 7.12502
rthumb -4.63354 -41.7231
lclavicle 5.80451e-014 -5.56597e-014
lhumerus -44.2451 34.9165 51.8434
lradius 57.8275
lwrist 3.34844
lhand -31.2138 37.3128
lfingers 7.12502
lthumb -4.48956 67.2452
rfemur -62.4517 -27.2597 20.8017
rtibia 91.9999
rfoot -27.8322 -9.62534
rtoes -4.73084
lfemur -54.773 -0.0668556 -10.2132
ltibia 71.7375
lfoot -26.2716 -12.4383
ltoes -21.0043
10
root -10.039 14.6083 -8.38727 16.1217 37.0971 8.29448
lowerback 30.0642 1.15935 -2.18723
upperback 7.50641 1.32794 2.12676
thorax -8.15044 0.776637 3.1651
lowerneck -18.0418 -10.2783 -8.29335
upperneck 1.24204 -12.5351 9.00391
head 4.29815 -5.78547 2.90787
rclavicle 4.13472e-014 -2.54444e-014
rhumerus -8.20056 -28.717 -50.0043
rradius 63.7171
rwrist 26.9294
rhand -31.3455 -11.9821
rfingers 7.12502
rthumb -4.61679 -41.9118
lclavicle 4.13472e-014 -2.54444e-014
lhumerus -44.2035 35.4485 51.8146
lradius 57.464
lwrist 2.6033
lhand -30.8318 36.7348
lfingers 7.12502
lthumb -4.12073 66.6747
rfemur -62.068 -27.0044 21.132
rtibia 91.6821
rfoot -27.9691 -9.64656
rtoes -4.51463
lfemur -54.5012 -0.324044 -9.38198
ltibia 71.692
lfoot -25.4927 -14.4815
ltoes -14.2388
